<svg xmlns="http://www.w3.org/2000/svg" xmlns:xlink="http://www.w3.org/1999/xlink" width="100.0" height="100.0" viewBox="-105.49738450062273 39.973943859055154 0.04262553087430376 0.014815447727180242" preserveAspectRatio="xMinYMin meet"><g transform="matrix(1,0,0,-1,0,79.9627031658375)"><g><path fill-rule="evenodd" fill="#66cc99" stroke="#555555" stroke-width="0.0008525106174860753" opacity="0.6" d="M -105.45746625895013,39.982116334122594 L -105.45739163714077,39.98210229585038 L -105.45727984897246,39.982102736919124 L -105.45718669294446,39.98210310439097 L -105.45711216671542,39.982103398320085 L -105.45703764048525,39.98210369220129 L -105.45696311425402,39.98210398603459 L -105.45688858919286,39.98210427981534 L -105.45683250418756,39.982075833554084 L -105.45681358570765,39.98203290983887 L -105.456775940858,39.98197572535678 L -105.45675692816513,39.981918467441844 L -105.45670074911396,39.981875688727094 L -105.45666300668763,39.98180417183171 L -105.45662545868107,39.981761321477926 L -105.45658790836724,39.981718469318686 L -105.45658743135223,39.981646804696744 L -105.45658695435093,39.98157514187584 L -105.45660530131488,39.981532071324025 L -105.45664227787303,39.981488924674885 L -105.45669798179597,39.98146004059233 L -105.45677240953879,39.98144541275672 L -105.45682820880792,39.981430859194 L -105.45692136392768,39.98143049201535 L -105.45699608041348,39.98145886568302 L -105.45705225929161,39.98150164245667 L -105.45712697590254,39.98153001513793 L -105.45718315843389,39.981572791833 L -105.4572579707151,39.98161549681143 L -105.45733287513083,39.98167253413699 L -105.45738896116912,39.981700978352265 L -105.45744504842496,39.981729422535395 L -105.45753820394214,39.98172905485876 L -105.45755683481113,39.981728981315364 L -105.45772451848487,39.981728319267 L -105.45794962340523,39.981956760573276 L -105.45793127951869,39.981999831321346 L -105.45791293679855,39.982042904764526 L -105.45789458935289,39.982085975520256 L -105.45787624540996,39.98212904806095 L -105.45782044813778,39.98214360121817 L -105.45774592187134,39.98214389555501 L -105.45769362207882,39.98214410208116 L -105.45746625895013,39.982116334122594 z" /><path fill-rule="evenodd" fill="#66cc99" stroke="#555555" stroke-width="0.0008525106174860753" opacity="0.6" d="M -105.48817974903288,39.98698158163061 L -105.48768574692892,39.98694658333401 L -105.48719574776413,39.98697558319447 L -105.4868587482311,39.98683958227195 L -105.48638874864086,39.98662458231767 L -105.48603874768767,39.98654658167142 L -105.48563974856921,39.986734581500656 L -105.4853097473828,39.98648558318173 L -105.48478274795441,39.9861515818731 L -105.48425674858399,39.98615158137901 L -105.48369874775616,39.986196582494294 L -105.4832737503182,39.98614358220318 L -105.48252274832824,39.98620258061797 L -105.48196974962786,39.986086581364574 L -105.48134674984412,39.9860835814957 L -105.4808347497642,39.985885581632246 L -105.48040174902658,39.98555758169111 L -105.48010775039343,39.98559058270878 L -105.47883575001528,39.98542758166384 L -105.47795075041996,39.98515358205809 L -105.47752075110441,39.984702582730584 L -105.47743433943042,39.98444335005238 L -105.47722755661185,39.98452072971673 L -105.47711835106304,39.98447928565484 L -105.47717246750257,39.98443018847251 L -105.4771262101834,39.98430469887927 L -105.47704360073456,39.98417237811162 L -105.47690668113114,39.98406122577076 L -105.47694201501047,39.98392143791609 L -105.47695900100739,39.98375379525224 L -105.47704034724191,39.98370458427277 L -105.4772523021968,39.98368341183257 L -105.47736724090322,39.983724185262744 L -105.47760195847323,39.98354168223569 L -105.47780895947199,39.98328946994473 L -105.47786268535256,39.983184517048926 L -105.47781628640232,39.98303808056419 L -105.47771596152633,39.982968673746015 L -105.47760714475041,39.98298308642499 L -105.47747158513376,39.98306743041236 L -105.47735349829752,39.98305395344242 L -105.47717105613778,39.98311969395469 L -105.47714653194174,39.98309106094 L -105.47705447027529,39.98312500669198 L -105.47691823005505,39.98311160218974 L -105.47673535068427,39.982916853220196 L -105.476780196584,39.98283986583927 L -105.4768584765349,39.98275473120655 L -105.47667055496855,39.982735583556824 L -105.4765793071141,39.98266613571672 L -105.47646767926064,39.982500245354366 L -105.47619515709148,39.9822418035562 L -105.47603994076648,39.9821097784841 L -105.47587507196755,39.981894009117745 L -105.47560167947805,39.98173454005723 L -105.47546525155771,39.9817002066994 L -105.4752563548763,39.98167311687607 L -105.4751197333458,39.981603855702396 L -105.47471976724215,39.981654196822284 L -105.47463683885096,39.98171330450183 L -105.47437622853145,39.981711634194916 L -105.47424071684642,39.9818029568054 L -105.47416055496585,39.982023640465584 L -105.47392566160849,39.98218128292783 L -105.47379005194009,39.98225864025417 L -105.47363585610584,39.9822732355869 L -105.47344419617276,39.9821204100129 L -105.47331931867376,39.98201865544611 L -105.47305349194453,39.982011221894304 L -105.47270733367168,39.982001541275004 L -105.47201608859544,39.9821725689787 L -105.47121416305923,39.98214779611121 L -105.4711044505811,39.98209217152965 L -105.4708129118587,39.982093356083695 L -105.47037483361329,39.981982994471466 L -105.46997262482465,39.981788381294855 L -105.46949829871785,39.98170619724728 L -105.46909743484045,39.981707820253725 L -105.4688049396988,39.98156882949391 L -105.46851302014478,39.98151393834377 L -105.46803927148005,39.98151585226573 L -105.46774830856835,39.98160113216523 L -105.46738426787117,39.981658671199 L -105.467092539942,39.98163181232757 L -105.46669091460295,39.98152128896476 L -105.46636293401191,39.981522609040944 L -105.46559265582309,39.98104529699817 L -105.46558255609504,39.981012764508556 L -105.46534975189945,39.980998581869514 L -105.46428375267173,39.980560580908254 L -105.46361364495775,39.98036711473188 L -105.46328802200871,39.98063123108836 L -105.46325182443404,39.9807890415225 L -105.463215626684,39.98094685014007 L -105.46291801299691,39.98101970560339 L -105.4627123942616,39.980920193684746 L -105.4625407530564,39.98078158121788 L -105.46248287079604,39.98068060801104 L -105.46245010896834,39.98070624361314 L -105.46224507133311,39.980692727802776 L -105.46190990463231,39.98072273215207 L -105.46157464351508,39.98073840044538 L -105.4614063850873,39.98065307108274 L -105.46137732856323,39.980583992521765 L -105.46108775417862,39.98041058116262 L -105.46041575525616,39.98018558147203 L -105.4601676038634,39.98002186626068 L -105.45957651061113,39.980058349436526 L -105.45914963147173,39.9803037053349 L -105.4588148486594,39.980391028460915 L -105.45812540792065,39.98037942355993 L -105.45795772989581,39.98038008616054 L -105.45773521002442,39.98053862908927 L -105.45745708293113,39.98074039114738 L -105.45714044885136,39.98075597310165 L -105.45686987081541,39.98069254067712 L -105.45678588765853,39.98067137162425 L -105.45660005414445,39.98074377032059 L -105.45645062314452,39.980687026012205 L -105.45633769311414,39.98051547301186 L -105.45643046787727,39.98045777487486 L -105.4565546468599,39.98038960523692 L -105.45660375414234,39.980180581247005 L -105.45691475570261,39.98007758121529 L -105.45704892607823,39.98000363783366 L -105.45706076959469,39.97998229741112 L -105.45715115402524,39.979566280005315 L -105.4571852624754,39.97909315431707 L -105.45727717359641,39.97890645949976 L -105.45765122049431,39.978638090919205 L -105.4577592738687,39.97856056391236 L -105.45793730698648,39.97837597637722 L -105.45798130888436,39.97833035446883 L -105.45822158939256,39.978042743198394 L -105.4584261395099,39.977984602433445 L -105.45859408714814,39.97797806299264 L -105.45859883437653,39.977959300993945 L -105.45864824100997,39.977933677842266 L -105.45866442655526,39.97788275845775 L -105.45868052707685,39.97781912557179 L -105.45871332307242,39.97778085428493 L -105.45871298304905,39.97773000028887 L -105.4587291684996,39.9776790808941 L -105.45871314751086,39.977626754524934 L -105.45912127023917,39.97728111394537 L -105.45935373148107,39.97716805407069 L -105.45973364409558,39.977141120231686 L -105.46004736981344,39.977101734016244 L -105.460377705796,39.9770749948185 L -105.46080702262675,39.97702243356059 L -105.46107100037787,39.97695781466034 L -105.46130167062243,39.976855186207 L -105.46161488084952,39.97673951478227 L -105.46192834680896,39.97666198300211 L -105.4621919795079,39.97654650757639 L -105.4625545051562,39.976392495452316 L -105.46291797275536,39.97637833064104 L -105.46326517258335,39.976402371218065 L -105.46370328542082,39.97644707820114 L -105.46374394340558,39.976415471314745 L -105.46378091150564,39.97637232477728 L -105.46398516397257,39.97627117482903 L -105.46430119132005,39.97616957820851 L -105.46437493494437,39.976054617034464 L -105.46429954240944,39.97592591960168 L -105.46433573278925,39.97576811144868 L -105.46457704754452,39.97563814598753 L -105.46511759975641,39.975678977466 L -105.46562578596117,39.975858027659434 L -105.46578675428322,39.97584358155502 L -105.46627875477603,39.97601358231578 L -105.46697575361308,39.97605758232863 L -105.46704763825049,39.97606640701282 L -105.46733677293703,39.97599971528364 L -105.46755994070614,39.9759414824394 L -105.46785870138474,39.9760406081516 L -105.46792039990288,39.97607724877918 L -105.46839875240107,39.97594158273038 L -105.46863975514287,39.97557358231205 L -105.46941975428521,39.97552258242087 L -105.46960675298537,39.97572558313196 L -105.46953975466324,39.976078581397935 L -105.47001974351582,39.976185493245765 L -105.4704677512463,39.976159046617305 L -105.47076592575704,39.97617216789146 L -105.47097183689483,39.976314662723844 L -105.471103819443,39.976543456977424 L -105.47112408099204,39.976578796600414 L -105.47148094929867,39.97720124708248 L -105.47179706934891,39.977113962440605 L -105.47197192378695,39.977041090346184 L -105.4721964801924,39.97694750565515 L -105.47255971722193,39.976938858097064 L -105.47281994381706,39.97685179941963 L -105.47337864633229,39.97682085086971 L -105.47378820645665,39.97677617926403 L -105.47406745761468,39.97674637108708 L -105.47417973325446,39.976817576575684 L -105.47414445417446,39.977104384296425 L -105.47399620512567,39.977219656330135 L -105.47384795907331,39.977334925457704 L -105.47383507793526,39.97735493388424 L -105.47384475101143,39.977493581942575 L -105.47426875135906,39.9778805813002 L -105.47485475105279,39.978014582164064 L -105.4753497512073,39.97822158202872 L -105.47612175155312,39.978282583030875 L -105.4769237500493,39.9782275824652 L -105.47748475160085,39.97822358264348 L -105.47814775257629,39.97789858145543 L -105.4784367514935,39.977420583179 L -105.47938274904546,39.977224581632754 L -105.48049875070917,39.977327583598466 L -105.48119874870548,39.97719258376182 L -105.48168474972734,39.97727658338195 L -105.4820757519433,39.97705658420596 L -105.48213474887544,39.97672058387408 L -105.48243574953584,39.97628658350882 L -105.48287575007724,39.97612258250309 L -105.48324575015293,39.976047582007254 L -105.48408174825387,39.97605658400671 L -105.48490875011046,39.975921583610145 L -105.48529474814937,39.97598558376638 L -105.48565974893492,39.97604558377364 L -105.48593474994533,39.97624458447724 L -105.48697974965616,39.97623358396656 L -105.48753274844796,39.97624458216147 L -105.48791774905062,39.97626258372947 L -105.48883074862148,39.97636358479618 L -105.48905074984246,39.976632584457455 L -105.48968874993137,39.97703458326742 L -105.49021074745407,39.977455584265456 L -105.4906457469261,39.97789358230468 L -105.49109774795217,39.97828158255547 L -105.49139474750848,39.97840958444137 L -105.49141258856362,39.97842903479681 L -105.49137661205121,39.97852758039537 L -105.49142589776257,39.97867187477458 L -105.49149705962509,39.97881537270747 L -105.49168012093492,39.978851792306415 L -105.49182529555917,39.97888473332821 L -105.49182921276281,39.97888322468813 L -105.49185827112282,39.97891490229675 L -105.49189268565961,39.978915452714666 L -105.49205956976309,39.97891700405027 L -105.4921707982912,39.97895685958483 L -105.49222301690934,39.979059956566694 L -105.49216819847203,39.97918476391952 L -105.49215118400325,39.97922753439472 L -105.49212243422234,39.97929980494806 L -105.4920838765715,39.979465222358 L -105.49216073913603,39.97965192906862 L -105.4922233517403,39.979762779864906 L -105.49238168650824,39.97977564637555 L -105.49249651956464,39.97974656059222 L -105.4924833589051,39.97982073993392 L -105.49242896042973,39.979931465132644 L -105.49247447431786,39.98009642094899 L -105.49263792152355,39.980186190845686 L -105.49278318021722,39.9800898409262 L -105.49292592352909,39.98005861876994 L -105.49301678351637,39.98014692186717 L -105.49315500086024,39.980206684971265 L -105.49319034701313,39.980199236665726 L -105.49330144236194,39.980301460031775 L -105.49332314155095,39.98030093971734 L -105.49345607884223,39.9803615412172 L -105.49354098728526,39.980342304238974 L -105.49367082296656,39.98035676342528 L -105.49381809358151,39.980384843046565 L -105.49385178837834,39.980526244848406 L -105.4939660337939,39.980550133983655 L -105.49410726928878,39.9806335760856 L -105.49425261045151,39.980891318905044 L -105.49434891951715,39.98108188205733 L -105.4945839480919,39.98129717076174 L -105.49449667255162,39.981371913395435 L -105.49449258623972,39.98138019369083 L -105.49458906117117,39.981548252208896 L -105.49473247535724,39.98162305917809 L -105.49479575775295,39.981577839304016 L -105.49492425245445,39.98157213893229 L -105.49494788941013,39.981609145651404 L -105.49486650274474,39.981661825510706 L -105.49485317316754,39.9816890667035 L -105.49489449679017,39.981760229650455 L -105.4949014545805,39.98179752832961 L -105.49497362048255,39.98181722547985 L -105.49506314245714,39.98180934793053 L -105.49510898969429,39.981777496270986 L -105.49520261571588,39.98179463743784 L -105.49529791633559,39.98176940832679 L -105.49534971529378,39.98175926901639 L -105.49535920355511,39.9817663011385 L -105.49535600536673,39.98177883658733 L -105.49534217559055,39.98188470104381 L -105.49546094477913,39.98196504171017 L -105.49546320872184,39.98205925171854 L -105.49552272214002,39.982076940271234 L -105.4955683176,39.98212404663938 L -105.49563262510992,39.98210676303251 L -105.49564408053011,39.98212911954795 L -105.49565021055588,39.982125386715374 L -105.49571919454755,39.982176642016526 L -105.49575464760362,39.9822553484094 L -105.49580577725702,39.98229872529316 L -105.49580435181925,39.98237956885719 L -105.49575825224277,39.98239255991264 L -105.49571399911108,39.98240256081899 L -105.49571391093811,39.98240316304878 L -105.49567149986976,39.98244230627341 L -105.49564375734695,39.982480695709754 L -105.49561215590704,39.982520090912175 L -105.4955629543587,39.9825949418229 L -105.49541627144477,39.98269942087978 L -105.4953093183747,39.98277330759181 L -105.49516146038238,39.98289212138536 L -105.495091891316,39.983020448294546 L -105.49510764794083,39.9831290370151 L -105.49509222511118,39.98321532819154 L -105.4950157007512,39.98335450999518 L -105.49484278169808,39.98348698559719 L -105.49474274744158,39.98364058410521 L -105.49462242692572,39.98376931383532 L -105.49456626227402,39.98376287455242 L -105.49441689751359,39.98378085467518 L -105.49425747222146,39.98384342540772 L -105.49423106954603,39.98394799004299 L -105.49418404776645,39.98403084524946 L -105.49402143848985,39.984113448035984 L -105.49405429635675,39.98422337672446 L -105.49403308997334,39.98427899071194 L -105.49398774152536,39.98425761730678 L -105.49389436929492,39.98431599757243 L -105.4938856493253,39.98444139123765 L -105.49389076420557,39.98453069949149 L -105.49399662960711,39.98456393406839 L -105.49410441958963,39.98465571662681 L -105.4940833812099,39.9847505989756 L -105.49401666019088,39.984734841476325 L -105.49393502052152,39.98475885536207 L -105.49383334838352,39.98484866818184 L -105.49374517177331,39.984909939044634 L -105.49380493528685,39.984943047618536 L -105.49380551988304,39.98501936506498 L -105.49375883229469,39.98510846513376 L -105.49373586529326,39.9852013770841 L -105.49362639787375,39.98525933825843 L -105.49370937894179,39.98530686363411 L -105.4936405635748,39.98534957110968 L -105.49356487554516,39.9853968847714 L -105.49329053524316,39.98536993857609 L -105.49319825185049,39.98528016694373 L -105.49313169867317,39.985315327822036 L -105.4929664089636,39.9852090894983 L -105.49287890111056,39.98512661142637 L -105.49269625895369,39.9849740588098 L -105.49268552921896,39.98475835201475 L -105.49258159552194,39.9846620018142 L -105.49248134568374,39.984568752344984 L -105.4924460576542,39.98444595767743 L -105.49233726302622,39.984464650212225 L -105.49224849674972,39.98445823836313 L -105.49215763692371,39.98454968502471 L -105.49210407638857,39.984621559914025 L -105.4922334944739,39.98473341625034 L -105.4923909064626,39.98481991716207 L -105.49236819269454,39.98495830277408 L -105.49246659493028,39.98503755269857 L -105.49236793999495,39.9851108941722 L -105.49239342106507,39.985271827410536 L -105.49252618946889,39.985329369107774 L -105.4926995279419,39.98547705931612 L -105.49270192556368,39.98547837175814 L -105.49272674766974,39.985698583867325 L -105.49242574499493,39.98598158131682 L -105.49179974721254,39.98649258273247 L -105.49135074661667,39.98681358314313 L -105.49073074611258,39.987072582635236 L -105.49024874880865,39.98714358306623 L -105.48982574668047,39.98718058341662 L -105.48893874747144,39.986992582676365 L -105.48817974903288,39.98698158163061 z" /></g></g></svg>